<mxfile host="app.diagrams.net" agent="Mozilla/5.0 (Windows NT 10.0; Win64; x64) AppleWebKit/537.36 (KHTML, like Gecko) Chrome/134.0.0.0 Safari/537.36 Edg/134.0.0.0" version="26.2.3">
  <diagram name="Sivu-1" id="C5NIpqPYnWYHExOpX7Vy">
    <mxGraphModel dx="1420" dy="786" grid="1" gridSize="10" guides="1" tooltips="1" connect="1" arrows="1" fold="1" page="1" pageScale="1" pageWidth="827" pageHeight="1169" math="0" shadow="0">
      <root>
        <mxCell id="0" />
        <mxCell id="1" parent="0" />
        <mxCell id="XzFl2lyVsJqz3fsc6j0e-1" value="Aineistopyynnöt" style="whiteSpace=wrap;html=1;aspect=fixed;" vertex="1" parent="1">
          <mxGeometry x="80" y="280" width="100" height="100" as="geometry" />
        </mxCell>
        <mxCell id="XzFl2lyVsJqz3fsc6j0e-2" value="Tiedonhaku" style="whiteSpace=wrap;html=1;aspect=fixed;" vertex="1" parent="1">
          <mxGeometry x="80" y="170" width="100" height="100" as="geometry" />
        </mxCell>
        <mxCell id="XzFl2lyVsJqz3fsc6j0e-3" value="Ydinasiakkaat" style="whiteSpace=wrap;html=1;aspect=fixed;" vertex="1" parent="1">
          <mxGeometry x="280" y="140" width="100" height="100" as="geometry" />
        </mxCell>
        <mxCell id="XzFl2lyVsJqz3fsc6j0e-4" value="Varjobudjetti-analyysit" style="whiteSpace=wrap;html=1;aspect=fixed;" vertex="1" parent="1">
          <mxGeometry x="80" y="50" width="100" height="100" as="geometry" />
        </mxCell>
        <mxCell id="XzFl2lyVsJqz3fsc6j0e-5" value="Kansalaiset" style="whiteSpace=wrap;html=1;aspect=fixed;" vertex="1" parent="1">
          <mxGeometry x="280" y="260" width="100" height="100" as="geometry" />
        </mxCell>
        <mxCell id="XzFl2lyVsJqz3fsc6j0e-6" value="Sähköposti" style="whiteSpace=wrap;html=1;aspect=fixed;" vertex="1" parent="1">
          <mxGeometry x="540" y="160" width="100" height="100" as="geometry" />
        </mxCell>
        <mxCell id="XzFl2lyVsJqz3fsc6j0e-7" value="Finna" style="whiteSpace=wrap;html=1;aspect=fixed;" vertex="1" parent="1">
          <mxGeometry x="540" y="270" width="100" height="100" as="geometry" />
        </mxCell>
        <mxCell id="XzFl2lyVsJqz3fsc6j0e-8" value="Puheiin" style="whiteSpace=wrap;html=1;aspect=fixed;" vertex="1" parent="1">
          <mxGeometry x="530" y="40" width="100" height="100" as="geometry" />
        </mxCell>
        <mxCell id="XzFl2lyVsJqz3fsc6j0e-10" value="" style="endArrow=classic;html=1;rounded=0;exitX=0;exitY=0.5;exitDx=0;exitDy=0;entryX=1;entryY=0.5;entryDx=0;entryDy=0;" edge="1" parent="1" source="XzFl2lyVsJqz3fsc6j0e-3" target="XzFl2lyVsJqz3fsc6j0e-4">
          <mxGeometry width="50" height="50" relative="1" as="geometry">
            <mxPoint x="390" y="430" as="sourcePoint" />
            <mxPoint x="440" y="380" as="targetPoint" />
          </mxGeometry>
        </mxCell>
        <mxCell id="XzFl2lyVsJqz3fsc6j0e-11" value="" style="endArrow=classic;html=1;rounded=0;exitX=0;exitY=0.5;exitDx=0;exitDy=0;entryX=1;entryY=0.5;entryDx=0;entryDy=0;" edge="1" parent="1" source="XzFl2lyVsJqz3fsc6j0e-3" target="XzFl2lyVsJqz3fsc6j0e-2">
          <mxGeometry width="50" height="50" relative="1" as="geometry">
            <mxPoint x="290" y="200" as="sourcePoint" />
            <mxPoint x="190" y="110" as="targetPoint" />
          </mxGeometry>
        </mxCell>
        <mxCell id="XzFl2lyVsJqz3fsc6j0e-12" value="" style="endArrow=classic;html=1;rounded=0;exitX=0;exitY=0.5;exitDx=0;exitDy=0;entryX=1;entryY=0.5;entryDx=0;entryDy=0;" edge="1" parent="1" source="XzFl2lyVsJqz3fsc6j0e-3" target="XzFl2lyVsJqz3fsc6j0e-1">
          <mxGeometry width="50" height="50" relative="1" as="geometry">
            <mxPoint x="290" y="200" as="sourcePoint" />
            <mxPoint x="190" y="230" as="targetPoint" />
          </mxGeometry>
        </mxCell>
        <mxCell id="XzFl2lyVsJqz3fsc6j0e-13" value="" style="endArrow=classic;html=1;rounded=0;exitX=0;exitY=0.5;exitDx=0;exitDy=0;entryX=1;entryY=0.5;entryDx=0;entryDy=0;" edge="1" parent="1" source="XzFl2lyVsJqz3fsc6j0e-5" target="XzFl2lyVsJqz3fsc6j0e-2">
          <mxGeometry width="50" height="50" relative="1" as="geometry">
            <mxPoint x="290" y="200" as="sourcePoint" />
            <mxPoint x="190" y="230" as="targetPoint" />
          </mxGeometry>
        </mxCell>
        <mxCell id="XzFl2lyVsJqz3fsc6j0e-14" value="" style="endArrow=classic;html=1;rounded=0;exitX=0;exitY=0.5;exitDx=0;exitDy=0;entryX=1;entryY=0.5;entryDx=0;entryDy=0;" edge="1" parent="1" source="XzFl2lyVsJqz3fsc6j0e-5" target="XzFl2lyVsJqz3fsc6j0e-1">
          <mxGeometry width="50" height="50" relative="1" as="geometry">
            <mxPoint x="290" y="320" as="sourcePoint" />
            <mxPoint x="190" y="230" as="targetPoint" />
          </mxGeometry>
        </mxCell>
        <mxCell id="XzFl2lyVsJqz3fsc6j0e-15" value="" style="endArrow=classic;html=1;rounded=0;exitX=1;exitY=0.5;exitDx=0;exitDy=0;" edge="1" parent="1" source="XzFl2lyVsJqz3fsc6j0e-5" target="XzFl2lyVsJqz3fsc6j0e-7">
          <mxGeometry width="50" height="50" relative="1" as="geometry">
            <mxPoint x="290" y="320" as="sourcePoint" />
            <mxPoint x="190" y="340" as="targetPoint" />
          </mxGeometry>
        </mxCell>
        <mxCell id="XzFl2lyVsJqz3fsc6j0e-16" value="" style="endArrow=classic;html=1;rounded=0;entryX=0;entryY=0.5;entryDx=0;entryDy=0;" edge="1" parent="1" target="XzFl2lyVsJqz3fsc6j0e-6">
          <mxGeometry width="50" height="50" relative="1" as="geometry">
            <mxPoint x="380" y="310" as="sourcePoint" />
            <mxPoint x="550" y="328" as="targetPoint" />
          </mxGeometry>
        </mxCell>
        <mxCell id="XzFl2lyVsJqz3fsc6j0e-17" value="" style="endArrow=classic;html=1;rounded=0;entryX=-0.02;entryY=0.44;entryDx=0;entryDy=0;entryPerimeter=0;exitX=1;exitY=0.5;exitDx=0;exitDy=0;" edge="1" parent="1" source="XzFl2lyVsJqz3fsc6j0e-5" target="XzFl2lyVsJqz3fsc6j0e-8">
          <mxGeometry width="50" height="50" relative="1" as="geometry">
            <mxPoint x="390" y="320" as="sourcePoint" />
            <mxPoint x="550" y="220" as="targetPoint" />
          </mxGeometry>
        </mxCell>
        <mxCell id="XzFl2lyVsJqz3fsc6j0e-18" value="" style="endArrow=classic;html=1;rounded=0;exitX=1;exitY=0.5;exitDx=0;exitDy=0;" edge="1" parent="1">
          <mxGeometry width="50" height="50" relative="1" as="geometry">
            <mxPoint x="380" y="200" as="sourcePoint" />
            <mxPoint x="540" y="208" as="targetPoint" />
          </mxGeometry>
        </mxCell>
        <mxCell id="XzFl2lyVsJqz3fsc6j0e-19" value="" style="endArrow=classic;html=1;rounded=0;exitX=1;exitY=0.5;exitDx=0;exitDy=0;entryX=0;entryY=0.5;entryDx=0;entryDy=0;" edge="1" parent="1" source="XzFl2lyVsJqz3fsc6j0e-3" target="XzFl2lyVsJqz3fsc6j0e-8">
          <mxGeometry width="50" height="50" relative="1" as="geometry">
            <mxPoint x="390" y="210" as="sourcePoint" />
            <mxPoint x="550" y="218" as="targetPoint" />
          </mxGeometry>
        </mxCell>
      </root>
    </mxGraphModel>
  </diagram>
</mxfile>
